<?xml version="1.0" encoding="UTF-8" standalone="no"?>
<!-- Created with Inkscape (http://www.inkscape.org/) -->

<svg
   xmlns:dc="http://purl.org/dc/elements/1.1/"
   xmlns:cc="http://creativecommons.org/ns#"
   xmlns:rdf="http://www.w3.org/1999/02/22-rdf-syntax-ns#"
   xmlns:svg="http://www.w3.org/2000/svg"
   xmlns="http://www.w3.org/2000/svg"
   xmlns:sodipodi="http://sodipodi.sourceforge.net/DTD/sodipodi-0.dtd"
   xmlns:inkscape="http://www.inkscape.org/namespaces/inkscape"
   id="svg2"
   version="1.1"
   inkscape:version="0.91 r13725"
   xml:space="preserve"
   width="509.77332"
   height="346"
   viewBox="0 0 509.77329 346"
   sodipodi:docname="gtd.svg"><metadata
     id="metadata8"><rdf:RDF><cc:Work
         rdf:about=""><dc:format>image/svg+xml</dc:format><dc:type
           rdf:resource="http://purl.org/dc/dcmitype/StillImage" /><dc:title></dc:title></cc:Work></rdf:RDF></metadata><defs
     id="defs6"><clipPath
       clipPathUnits="userSpaceOnUse"
       id="clipPath16"><path
         d="m 0,595.276 841.89,0 L 841.89,0 0,0 0,595.276 Z"
         id="path18"
         inkscape:connector-curvature="0" /></clipPath></defs><sodipodi:namedview
     pagecolor="#ffffff"
     bordercolor="#666666"
     borderopacity="1"
     objecttolerance="10"
     gridtolerance="10"
     guidetolerance="10"
     inkscape:pageopacity="0"
     inkscape:pageshadow="2"
     inkscape:window-width="1920"
     inkscape:window-height="1027"
     id="namedview4"
     showgrid="false"
     fit-margin-top="0"
     fit-margin-left="0"
     fit-margin-right="0"
     fit-margin-bottom="0"
     inkscape:zoom="1"
     inkscape:cx="13.486784"
     inkscape:cy="208.92492"
     inkscape:window-x="0"
     inkscape:window-y="0"
     inkscape:window-maximized="1"
     inkscape:current-layer="g10" /><g
     id="g10"
     inkscape:groupmode="layer"
     inkscape:label="GTD_logo07"
     transform="matrix(1.25,0,0,-1.25,-390.66547,569.63997)"><g
       id="g12"
       transform="translate(97.027879,16.018129)"><g
         id="g14"
         clip-path="url(#clipPath16)"><path
           d="m 429.966,312.061 c 0.439,-7.26 3.889,-15.334 12.027,-15.289 14.089,0.078 15.652,12.318 15.794,24.636 l 0.065,15.4 c -3.256,1.104 -6.596,1.763 -10.116,1.763 -15.07,0 -18.326,-17.163 -17.77,-26.51"
           style="fill:#80a2b4;fill-opacity:1;fill-rule:nonzero;stroke:none"
           id="path20"
           inkscape:connector-curvature="0" /><path
           d="m 466.766,311.403 c -1.712,-18.235 -16.84,-22.989 -25.483,-22.989 -9.347,0 -19.939,6.045 -21.012,23.983 -0.996,16.497 7.383,34.532 26.083,34.532 4.289,0 7.518,-0.659 11.568,-2.086 l -0.051,24.133 c -0.058,2.383 1.841,4.418 4.217,4.456 2.41,0.046 4.432,-1.873 4.522,-4.366 0,0 0.44,-46.114 0.156,-57.663 m -55.868,-22.706 c -1.434,-0.246 -2.803,-0.283 -4.354,-0.283 -9.566,0 -14.081,5.496 -14.553,13.415 -0.375,6.246 -0.155,42.406 -0.065,55.881 -0.045,2.545 1.932,4.567 4.431,4.567 2.494,0 4.561,-2.022 4.606,-4.515 -0.065,0 -0.154,-12.151 -0.154,-12.151 l 8.131,0 c 2.191,0 4.025,-1.634 4.064,-3.823 0.045,-2.197 -1.699,-3.973 -3.896,-3.973 -0.122,0 -8.28,0.097 -8.28,0.097 -0.149,-4.948 -0.342,-27.285 0.038,-33.66 0.291,-4.948 2.248,-8.139 7.306,-8.139 0.439,0 0.936,0.051 1.492,0.155 0.168,0.025 0.349,0 0.53,0 2.099,0 3.837,-1.7 3.882,-3.805 0.039,-1.912 -1.344,-3.5 -3.178,-3.766 m -34.474,-13.371 c -2.26,-6.568 -6.769,-11.103 -12.447,-13.377 -0.498,-0.22 -1.015,-0.426 -1.596,-0.426 -2.325,0 -4.244,1.879 -4.296,4.204 -0.031,1.718 0.982,3.166 2.513,3.818 6.886,3.217 9.386,10.846 9.347,18.539 l -0.097,8.908 -0.232,0.219 c -2.552,-3.301 -7.836,-8.797 -16.853,-8.797 -7.04,0 -20.231,3.52 -21.374,22.549 -1.208,20.128 9.282,35.966 30.069,35.966 2.254,0 4.644,-0.2 6.878,-0.497 6.234,-0.872 9.787,-5.432 9.813,-13.132 l 0.187,-31.134 c 0.246,-13.203 0.246,-20.574 -1.912,-26.84 m 140.15,116.154 c -3.313,3.087 -7.345,5.82 -11.381,9.062 -58.375,46.986 -127.503,16.918 -169.257,-41.114 -25.921,-36.031 -35.908,-74.549 -0.433,-103.106 54.331,-43.722 105.954,-2.511 144.446,44.093 l 34.52,41.87 c 14.967,18.5 15.793,36.922 2.105,49.195"
           style="fill:#80a2b4;fill-opacity:1;fill-rule:nonzero;stroke:none"
           id="path22"
           inkscape:connector-curvature="0" /><path
           d="m 363.86,338.583 c -0.865,0.065 -1.789,-0.012 -2.777,-0.012 -14.301,0 -20.903,-12.764 -20.083,-26.4 0.504,-8.468 3.669,-15.399 12.357,-15.399 13.313,0 15.981,12.318 16.058,23.874 l 0.059,10.367 c -0.013,4.541 -2.113,7.383 -5.614,7.57"
           style="fill:#80a2b4;fill-opacity:1;fill-rule:nonzero;stroke:none"
           id="path24"
           inkscape:connector-curvature="0" /><path
           d="m 369.415,320.646 c -0.077,-11.556 -2.745,-23.874 -16.058,-23.874 -8.688,0 -11.853,6.931 -12.357,15.399 -0.82,13.636 5.782,26.4 20.083,26.4 0.988,0 1.912,0.077 2.777,0.012 3.501,-0.187 5.601,-3.029 5.614,-7.57 l -0.059,-10.367 z m 8.734,12.654 c -0.026,7.7 -3.579,12.26 -9.813,13.132 -2.234,0.297 -4.624,0.497 -6.878,0.497 -20.787,0 -31.277,-15.838 -30.069,-35.966 1.143,-19.029 14.334,-22.549 21.374,-22.549 9.017,0 14.301,5.496 16.853,8.797 l 0.232,-0.219 0.097,-8.908 c 0.039,-7.693 -2.461,-15.322 -9.347,-18.539 -1.531,-0.652 -2.544,-2.1 -2.513,-3.818 0.052,-2.325 1.971,-4.204 4.296,-4.204 0.581,0 1.098,0.206 1.596,0.426 5.678,2.274 10.187,6.809 12.447,13.377 2.158,6.266 2.158,13.637 1.912,26.84 l -0.187,31.134 z"
           style="fill:#f8f8f9;fill-opacity:1;fill-rule:nonzero;stroke:none"
           id="path26"
           inkscape:connector-curvature="0" /><path
           d="m 457.787,321.408 c -0.142,-12.318 -1.705,-24.558 -15.794,-24.636 -8.138,-0.045 -11.588,8.029 -12.027,15.289 -0.556,9.347 2.7,26.51 17.77,26.51 3.52,0 6.86,-0.659 10.116,-1.763 l -0.065,-15.4 z m 4.301,52.024 c -2.376,-0.038 -4.275,-2.073 -4.217,-4.456 l 0.051,-24.133 c -4.05,1.427 -7.279,2.086 -11.568,2.086 -18.7,0 -27.079,-18.035 -26.083,-34.532 1.073,-17.938 11.665,-23.983 21.012,-23.983 8.643,0 23.771,4.754 25.483,22.989 0.284,11.549 -0.156,57.663 -0.156,57.663 -0.09,2.493 -2.112,4.412 -4.522,4.366"
           style="fill:#f8f8f9;fill-opacity:1;fill-rule:nonzero;stroke:none"
           id="path28"
           inkscape:connector-curvature="0" /><path
           d="m 410.194,296.268 c -0.181,0 -0.362,0.025 -0.53,0 -0.556,-0.104 -1.053,-0.155 -1.492,-0.155 -5.058,0 -7.015,3.191 -7.306,8.139 -0.38,6.375 -0.187,28.712 -0.038,33.66 0,0 8.158,-0.097 8.28,-0.097 2.197,0 3.941,1.776 3.896,3.973 -0.039,2.189 -1.873,3.823 -4.064,3.823 l -8.131,0 c 0,0 0.089,12.151 0.154,12.151 -0.045,2.493 -2.112,4.515 -4.606,4.515 -2.499,0 -4.476,-2.022 -4.431,-4.567 -0.09,-13.475 -0.31,-49.635 0.065,-55.881 0.472,-7.919 4.987,-13.415 14.553,-13.415 1.551,0 2.92,0.037 4.354,0.283 1.834,0.266 3.217,1.854 3.178,3.766 -0.045,2.105 -1.783,3.805 -3.882,3.805"
           style="fill:#f8f8f9;fill-opacity:1;fill-rule:nonzero;stroke:none"
           id="path30"
           inkscape:connector-curvature="0" /><path
           d="m 324.116,191.58 c 0,6.996 35.726,12.666 79.793,12.666 44.066,0 79.792,-5.67 79.792,-12.666 0,-6.996 -35.726,-12.668 -79.792,-12.668 -44.067,0 -79.793,5.672 -79.793,12.668"
           style="fill:#ffffff;fill-opacity:1;fill-rule:evenodd;stroke:none"
           id="path32"
           inkscape:connector-curvature="0" /><path
           d="m 325.297,191.748 c 0,6.775 35.153,12.266 78.508,12.266 43.363,0 77.947,-5.491 77.947,-12.266 0,-6.775 -34.584,-12.266 -77.947,-12.266 -43.355,0 -78.508,5.491 -78.508,12.266"
           style="fill:#ffffff;fill-opacity:1;fill-rule:evenodd;stroke:none"
           id="path34"
           inkscape:connector-curvature="0" /><path
           d="m 326.486,191.916 c 0,6.557 34.564,11.859 77.223,11.859 42.645,0 76.086,-5.302 76.086,-11.859 0,-6.551 -33.441,-11.859 -76.086,-11.859 -42.659,0 -77.223,5.308 -77.223,11.859"
           style="fill:#fafdff;fill-opacity:1;fill-rule:evenodd;stroke:none"
           id="path36"
           inkscape:connector-curvature="0" /><path
           d="m 327.668,192.084 c 0,6.33 33.996,11.459 75.937,11.459 41.942,0 74.232,-5.129 74.232,-11.459 0,-6.33 -32.29,-11.465 -74.232,-11.465 -41.941,0 -75.937,5.135 -75.937,11.465"
           style="fill:#f7f8f9;fill-opacity:1;fill-rule:evenodd;stroke:none"
           id="path38"
           inkscape:connector-curvature="0" /><path
           d="m 328.851,192.252 c 0,6.111 33.427,11.059 74.65,11.059 41.231,0 72.379,-4.948 72.379,-11.059 0,-6.111 -31.148,-11.064 -72.379,-11.064 -41.223,0 -74.65,4.953 -74.65,11.064"
           style="fill:#f7f8f9;fill-opacity:1;fill-rule:evenodd;stroke:none"
           id="path40"
           inkscape:connector-curvature="0" /><path
           d="m 330.039,192.42 c 0,5.891 32.846,10.664 73.366,10.664 40.52,0 70.517,-4.773 70.517,-10.664 0,-5.891 -29.997,-10.666 -70.517,-10.666 -40.52,0 -73.366,4.775 -73.366,10.666"
           style="fill:#f4f5f6;fill-opacity:1;fill-rule:evenodd;stroke:none"
           id="path42"
           inkscape:connector-curvature="0" /><path
           d="m 331.221,192.588 c 0,5.672 32.271,10.264 72.081,10.264 39.809,0 68.663,-4.592 68.663,-10.264 0,-5.672 -28.854,-10.264 -68.663,-10.264 -39.81,0 -72.081,4.592 -72.081,10.264"
           style="fill:#f3f4f6;fill-opacity:1;fill-rule:evenodd;stroke:none"
           id="path44"
           inkscape:connector-curvature="0" /><path
           d="m 332.409,192.756 c 0,5.445 31.696,9.855 70.796,9.855 39.098,0 66.803,-4.41 66.803,-9.855 0,-5.445 -27.705,-9.863 -66.803,-9.863 -39.1,0 -70.796,4.418 -70.796,9.863"
           style="fill:#f1f3f4;fill-opacity:1;fill-rule:evenodd;stroke:none"
           id="path46"
           inkscape:connector-curvature="0" /><path
           d="m 333.591,192.924 c 0,5.224 31.122,9.457 69.511,9.457 38.388,0 64.949,-4.233 64.949,-9.457 0,-5.227 -26.561,-9.463 -64.949,-9.463 -38.389,0 -69.511,4.236 -69.511,9.463"
           style="fill:#f2f2f3;fill-opacity:1;fill-rule:evenodd;stroke:none"
           id="path48"
           inkscape:connector-curvature="0" /><path
           d="m 334.78,193.092 c 0,5 30.54,9.056 68.224,9.056 37.679,0 63.096,-4.056 63.096,-9.056 0,-5.006 -25.417,-9.063 -63.096,-9.063 -37.684,0 -68.224,4.057 -68.224,9.063"
           style="fill:#f1f0f0;fill-opacity:1;fill-rule:evenodd;stroke:none"
           id="path50"
           inkscape:connector-curvature="0" /><path
           d="m 335.962,193.26 c 0,4.779 29.965,8.654 66.939,8.654 36.967,0 61.242,-3.875 61.242,-8.654 0,-4.787 -24.275,-8.662 -61.242,-8.662 -36.974,0 -66.939,3.875 -66.939,8.662"
           style="fill:#f0efef;fill-opacity:1;fill-rule:evenodd;stroke:none"
           id="path52"
           inkscape:connector-curvature="0" /><path
           d="m 337.15,193.428 c 0,4.56 29.392,8.254 65.648,8.254 36.263,0 59.388,-3.694 59.388,-8.254 0,-4.561 -23.125,-8.262 -59.388,-8.262 -36.256,0 -65.648,3.701 -65.648,8.262"
           style="fill:#edeeed;fill-opacity:1;fill-rule:evenodd;stroke:none"
           id="path54"
           inkscape:connector-curvature="0" /><path
           d="m 338.333,193.596 c 0,4.334 28.815,7.853 64.368,7.853 35.547,0 57.528,-3.519 57.528,-7.853 0,-4.342 -21.981,-7.862 -57.528,-7.862 -35.553,0 -64.368,3.52 -64.368,7.862"
           style="fill:#ececed;fill-opacity:1;fill-rule:evenodd;stroke:none"
           id="path56"
           inkscape:connector-curvature="0" /><path
           d="m 339.521,193.764 c 0,4.113 28.234,7.453 63.076,7.453 34.842,0 55.68,-3.34 55.68,-7.453 0,-4.121 -20.838,-7.455 -55.68,-7.455 -34.842,0 -63.076,3.334 -63.076,7.455"
           style="fill:#eaeaeb;fill-opacity:1;fill-rule:evenodd;stroke:none"
           id="path58"
           inkscape:connector-curvature="0" /><path
           d="m 340.697,193.932 c 0,3.894 27.672,7.052 61.798,7.052 34.131,0 53.819,-3.158 53.819,-7.052 0,-3.903 -19.688,-7.061 -53.819,-7.061 -34.126,0 -61.798,3.158 -61.798,7.061"
           style="fill:#e9eaea;fill-opacity:1;fill-rule:evenodd;stroke:none"
           id="path60"
           inkscape:connector-curvature="0" /><path
           d="m 341.885,194.098 c 0,3.677 27.091,6.654 60.512,6.654 33.421,0 51.96,-2.977 51.96,-6.654 0,-3.674 -18.539,-6.659 -51.96,-6.659 -33.421,0 -60.512,2.985 -60.512,6.659"
           style="fill:#e8e8ea;fill-opacity:1;fill-rule:evenodd;stroke:none"
           id="path62"
           inkscape:connector-curvature="0" /><path
           d="m 343.074,194.262 c 0,3.455 26.516,6.252 59.219,6.252 32.711,0 50.113,-2.797 50.113,-6.252 0,-3.451 -17.402,-6.254 -50.113,-6.254 -32.703,0 -59.219,2.803 -59.219,6.254"
           style="fill:#e7e7e7;fill-opacity:1;fill-rule:evenodd;stroke:none"
           id="path64"
           inkscape:connector-curvature="0" /><path
           d="m 344.256,194.436 c 0,3.228 25.941,5.851 57.941,5.851 32,0 48.252,-2.623 48.252,-5.851 0,-3.237 -16.252,-5.86 -48.252,-5.86 -32,0 -57.941,2.623 -57.941,5.86"
           style="fill:#e8e5e6;fill-opacity:1;fill-rule:evenodd;stroke:none"
           id="path66"
           inkscape:connector-curvature="0" /><path
           d="m 345.445,194.604 c 0,3.009 25.36,5.451 56.649,5.451 31.289,0 46.398,-2.442 46.398,-5.451 0,-3.018 -15.109,-5.459 -46.398,-5.459 -31.289,0 -56.649,2.441 -56.649,5.459"
           style="fill:#e4e5e6;fill-opacity:1;fill-rule:evenodd;stroke:none"
           id="path68"
           inkscape:connector-curvature="0" /><path
           d="m 346.627,194.771 c 0,2.79 24.791,5.051 55.37,5.051 30.571,0 44.538,-2.261 44.538,-5.051 0,-2.791 -13.967,-5.058 -44.538,-5.058 -30.579,0 -55.37,2.267 -55.37,5.058"
           style="fill:#e3e4e5;fill-opacity:1;fill-rule:evenodd;stroke:none"
           id="path70"
           inkscape:connector-curvature="0" /><path
           d="m 347.815,194.939 c 0,2.565 24.21,4.651 54.079,4.651 29.868,0 42.683,-2.086 42.683,-4.651 0,-2.572 -12.815,-4.658 -42.683,-4.658 -29.869,0 -54.079,2.086 -54.079,4.658"
           style="fill:#e1e2e2;fill-opacity:1;fill-rule:evenodd;stroke:none"
           id="path72"
           inkscape:connector-curvature="0" /><path
           d="m 348.997,195.107 c 0,2.344 23.635,4.243 52.793,4.243 29.165,0 40.829,-1.899 40.829,-4.243 0,-2.351 -11.664,-4.252 -40.829,-4.252 -29.158,0 -52.793,1.901 -52.793,4.252"
           style="fill:#e0e1e1;fill-opacity:1;fill-rule:evenodd;stroke:none"
           id="path74"
           inkscape:connector-curvature="0" /><path
           d="m 350.179,195.268 c 0,2.132 23.06,3.849 51.508,3.849 28.454,0 38.983,-1.717 38.983,-3.849 0,-2.125 -10.529,-3.85 -38.983,-3.85 -28.448,0 -51.508,1.725 -51.508,3.85"
           style="fill:#dfe0e1;fill-opacity:1;fill-rule:evenodd;stroke:none"
           id="path76"
           inkscape:connector-curvature="0" /><path
           d="m 351.368,195.436 c 0,1.912 22.486,3.449 50.222,3.449 27.736,0 37.123,-1.537 37.123,-3.449 0,-1.905 -9.387,-3.45 -37.123,-3.45 -27.736,0 -50.222,1.545 -50.222,3.45"
           style="fill:#e0dfe0;fill-opacity:1;fill-rule:evenodd;stroke:none"
           id="path78"
           inkscape:connector-curvature="0" /><path
           d="m 352.55,195.604 c 0,1.687 21.91,3.048 48.943,3.048 27.027,0 35.262,-1.361 35.262,-3.048 0,-1.68 -8.235,-3.049 -35.262,-3.049 -27.033,0 -48.943,1.369 -48.943,3.049"
           style="fill:#dcdddf;fill-opacity:1;fill-rule:evenodd;stroke:none"
           id="path80"
           inkscape:connector-curvature="0" /><path
           d="m 353.738,195.779 c 0,1.459 21.336,2.641 47.652,2.641 26.315,0 33.408,-1.182 33.408,-2.641 0,-1.466 -7.093,-2.656 -33.408,-2.656 -26.316,0 -47.652,1.19 -47.652,2.656"
           style="fill:#dbdedf;fill-opacity:1;fill-rule:evenodd;stroke:none"
           id="path82"
           inkscape:connector-curvature="0" /><path
           d="m 354.92,195.939 c 0,1.249 20.762,2.249 46.367,2.249 25.611,0 31.553,-1 31.553,-2.249 0,-1.24 -5.942,-2.24 -31.553,-2.24 -25.605,0 -46.367,1 -46.367,2.24"
           style="fill:#dcdbdb;fill-opacity:1;fill-rule:evenodd;stroke:none"
           id="path84"
           inkscape:connector-curvature="0" /></g></g></g></svg>