<?xml version="1.0" encoding="UTF-8" standalone="no"?>
<!-- Generator: Adobe Illustrator 17.0.0, SVG Export Plug-In . SVG Version: 6.00 Build 0)  -->

<svg
   xmlns:dc="http://purl.org/dc/elements/1.1/"
   xmlns:cc="http://creativecommons.org/ns#"
   xmlns:rdf="http://www.w3.org/1999/02/22-rdf-syntax-ns#"
   xmlns:svg="http://www.w3.org/2000/svg"
   xmlns="http://www.w3.org/2000/svg"
   xmlns:sodipodi="http://sodipodi.sourceforge.net/DTD/sodipodi-0.dtd"
   xmlns:inkscape="http://www.inkscape.org/namespaces/inkscape"
   version="1.1"
   id="Layer_1"
   x="0px"
   y="0px"
   width="421.60599"
   height="287.45862"
   viewBox="0 0 421.60599 287.45862"
   enable-background="new 0 0 400 225"
   xml:space="preserve"
   inkscape:version="0.91 r13725"
   sodipodi:docname="isu.svg"><metadata
     id="metadata4723"><rdf:RDF><cc:Work
         rdf:about=""><dc:format>image/svg+xml</dc:format><dc:type
           rdf:resource="http://purl.org/dc/dcmitype/StillImage" /><dc:title></dc:title></cc:Work></rdf:RDF></metadata><defs
     id="defs4721" /><sodipodi:namedview
     pagecolor="#ffffff"
     bordercolor="#666666"
     borderopacity="1"
     objecttolerance="10"
     gridtolerance="10"
     guidetolerance="10"
     inkscape:pageopacity="0"
     inkscape:pageshadow="2"
     inkscape:window-width="1920"
     inkscape:window-height="1027"
     id="namedview4719"
     showgrid="false"
     fit-margin-top="0"
     fit-margin-left="0"
     fit-margin-right="0"
     fit-margin-bottom="0"
     inkscape:zoom="1.2648373"
     inkscape:cx="192.16958"
     inkscape:cy="60.696723"
     inkscape:window-x="0"
     inkscape:window-y="0"
     inkscape:window-maximized="1"
     inkscape:current-layer="Layer_1" /><g
     id="g4655"
     transform="translate(10.802994,31.23092)"><rect
       x="98.882004"
       y="11.892"
       width="2.9260001"
       height="21.671"
       id="rect4657"
       style="fill:#00407e" /><polygon
       points="113.572,16.06 113.572,33.563 110.739,33.563 110.739,11.895 114.208,11.895 125.043,29.398 125.103,29.398 125.103,11.895 127.94,11.895 127.94,33.563 124.649,33.563 113.635,16.06 "
       id="polygon4659"
       style="fill:#00407e" /><polygon
       points="141.912,33.563 141.912,14.491 134.579,14.491 134.579,11.895 152.175,11.895 152.175,14.491 144.838,14.491 144.838,33.563 "
       id="polygon4661"
       style="fill:#00407e" /><polygon
       points="162.041,14.493 162.041,21.13 173.899,21.13 173.899,23.726 162.041,23.726 162.041,30.969 175.107,30.969 175.107,33.565 159.11,33.565 159.11,11.897 174.895,11.897 174.895,14.493 "
       id="polygon4663"
       style="fill:#00407e" /><path
       d="m 186.154,21.766 6.79,0 c 2.142,0 4.407,-0.547 4.407,-3.745 0,-3.35 -2.443,-3.622 -3.893,-3.622 l -7.303,0 0,7.367 z m 0,11.799 -2.927,0 0,-21.668 10.018,0 c 3.562,0 7.125,1.235 7.125,5.823 0,3.198 -1.629,4.377 -3.019,5.191 1.238,0.513 2.476,1.056 2.595,4.075 l 0.182,3.923 c 0.03,1.209 0.182,1.658 1.086,2.172 l 0,0.483 -3.592,0 c -0.42,-1.327 -0.513,-4.618 -0.513,-5.433 0,-1.781 -0.36,-3.863 -3.863,-3.863 l -7.091,0 0,9.297"
       id="path4665"
       inkscape:connector-curvature="0"
       style="fill:#00407e" /><polygon
       points="211.013,16.06 211.013,33.563 208.179,33.563 208.179,11.895 211.649,11.895 222.484,29.398 222.544,29.398 222.544,11.895 225.381,11.895 225.381,33.563 222.09,33.563 211.076,16.06 "
       id="polygon4667"
       style="fill:#00407e" /><path
       d="m 245.334,24.662 -3.198,-9.538 -0.06,0 -3.473,9.538 6.731,0 z m -7.634,2.596 -2.265,6.307 -3.016,0 8.147,-21.667 3.32,0 7.846,21.667 -3.198,0 -2.142,-6.307 -8.692,0"
       id="path4669"
       inkscape:connector-curvature="0"
       style="fill:#00407e" /><polygon
       points="261.391,33.563 261.391,14.491 254.059,14.491 254.059,11.895 271.654,11.895 271.654,14.491 264.321,14.491 264.321,33.563 "
       id="polygon4671"
       style="fill:#00407e" /><rect
       x="279.34601"
       y="11.896"
       width="2.9260001"
       height="21.667"
       id="rect4673"
       style="fill:#00407e" /><path
       d="m 300.046,13.918 c -4.708,0 -7.545,3.711 -7.545,8.813 0,5.102 2.837,8.813 7.545,8.813 4.708,0 7.544,-3.711 7.544,-8.813 0,-5.102 -2.837,-8.813 -7.544,-8.813 m 0,20.221 c -8.088,0 -10.564,-6.73 -10.564,-11.408 0,-4.678 2.477,-11.408 10.564,-11.408 8.087,0 10.564,6.73 10.564,11.408 0,4.678 -2.477,11.408 -10.564,11.408"
       id="path4675"
       inkscape:connector-curvature="0"
       style="fill:#00407e" /><polygon
       points="320.834,16.06 320.834,33.563 318.001,33.563 318.001,11.895 321.47,11.895 332.306,29.398 332.365,29.398 332.365,11.895 335.202,11.895 335.202,33.563 331.912,33.563 320.897,16.06 "
       id="polygon4677"
       style="fill:#00407e" /><path
       d="m 354.757,24.662 -3.198,-9.538 -0.06,0 -3.473,9.538 6.731,0 z m -7.634,2.596 -2.265,6.307 -3.019,0 8.151,-21.667 3.32,0 7.846,21.667 -3.198,0 -2.142,-6.307 -8.693,0"
       id="path4679"
       inkscape:connector-curvature="0"
       style="fill:#00407e" /><polygon
       points="370.694,11.894 370.694,30.97 381.679,30.97 381.679,33.565 367.767,33.565 367.767,11.894 "
       id="polygon4681"
       style="fill:#00407e" /><path
       d="m 388.437,5.092 c -2.595,0 -4.693,2.012 -4.693,5.024 0,3.012 2.098,5.038 4.693,5.02 l 0,0.018 c 2.528,0 4.678,-2.026 4.678,-5.038 0,-3.012 -2.15,-5.024 -4.678,-5.024 m 0,11.568 c -3.477,0 -6.578,-2.406 -6.578,-6.544 0,-4.138 3.101,-6.545 6.578,-6.545 3.466,0 6.563,2.406 6.563,6.545 0,4.139 -3.098,6.544 -6.563,6.544 m 0.245,-7.187 c 0.673,0 1.071,-0.138 1.071,-0.915 0,-0.729 -0.777,-0.781 -1.35,-0.781 l -1.056,0 0,1.696 1.335,0 m -1.335,4.157 -1.506,0 0,-7.047 2.633,0 c 1.818,0 2.889,0.521 2.889,2.127 0,1.301 -0.762,1.766 -1.696,1.837 l 1.8,3.083 -1.781,0 -1.629,-2.96 -0.71,0 0,2.96"
       id="path4683"
       inkscape:connector-curvature="0"
       style="fill:#00407e" /><path
       d="m 110.958,50.807 c -0.153,-3.35 -2.927,-4.406 -5.373,-4.406 -1.841,0 -4.949,0.513 -4.949,3.804 0,1.841 1.298,2.443 2.566,2.744 l 6.187,1.42 c 2.807,0.662 4.92,2.354 4.92,5.793 0,5.131 -4.771,6.548 -8.481,6.548 -4.013,0 -5.582,-1.205 -6.549,-2.082 -1.841,-1.658 -2.205,-3.469 -2.205,-5.492 l 2.748,0 c 0,3.923 3.198,5.068 5.976,5.068 2.112,0 5.674,-0.539 5.674,-3.652 0,-2.261 -1.056,-2.986 -4.618,-3.83 l -4.437,-1.026 c -1.42,-0.335 -4.618,-1.327 -4.618,-5.102 0,-3.38 2.205,-6.701 7.456,-6.701 7.574,0 8.329,4.529 8.452,6.913 l -2.749,0 z"
       id="path4685"
       inkscape:connector-curvature="0"
       style="fill:#00407e" /><path
       d="m 121.292,54.489 5.826,0 c 2.622,0 4.403,-0.967 4.403,-3.893 0,-2.744 -1.871,-3.622 -4.284,-3.622 l -5.946,0 0,7.515 z m 0,11.649 -2.927,0 0,-21.667 9.746,0 c 4.016,0 6.429,2.595 6.429,6.095 0,3.019 -1.722,6.429 -6.429,6.429 l -6.82,0 0,9.143"
       id="path4687"
       inkscape:connector-curvature="0"
       style="fill:#00407e" /><path
       d="m 146.573,57.236 -3.201,-9.538 -0.06,0 -3.469,9.538 6.73,0 z m -7.638,2.595 -2.265,6.307 -3.016,0 8.147,-21.667 3.32,0 7.846,21.667 -3.198,0 -2.142,-6.307 -8.692,0"
       id="path4689"
       inkscape:connector-curvature="0"
       style="fill:#00407e" /><path
       d="m 170.796,50.989 c -0.815,-3.804 -3.983,-4.499 -6.065,-4.499 -3.926,0 -7.095,2.9 -7.095,8.604 0,5.098 1.811,9.025 7.184,9.025 1.9,0 5.191,-0.907 6.187,-5.946 l 2.837,0 c -1.208,8.177 -7.846,8.541 -9.478,8.541 -4.92,0 -9.746,-3.202 -9.746,-11.531 0,-6.671 3.801,-11.286 10.11,-11.286 5.582,0 8.478,3.469 8.902,7.091 l -2.836,0 z"
       id="path4691"
       inkscape:connector-curvature="0"
       style="fill:#00407e" /><polygon
       points="180.146,47.066 180.146,53.704 192.004,53.704 192.004,56.299 180.146,56.299 180.146,63.543 193.213,63.543 193.213,66.138 177.216,66.138 177.216,44.471 193.001,44.471 193.001,47.066 "
       id="polygon4693"
       style="fill:#00407e" /><path
       d="m 222.454,44.469 0,14.063 c 0,4.436 -2.778,8.181 -8.72,8.181 -5.827,0 -8.333,-3.745 -8.333,-7.787 l 0,-14.457 2.93,0 0,13.643 c 0,4.708 2.867,6.005 5.492,6.005 2.684,0 5.704,-1.238 5.704,-5.946 l 0,-13.702 2.927,0 z"
       id="path4695"
       inkscape:connector-curvature="0"
       style="fill:#00407e" /><polygon
       points="229.674,48.634 229.674,66.137 226.837,66.137 226.837,44.469 230.306,44.469 241.142,61.972 241.202,61.972 241.202,44.469 244.039,44.469 244.039,66.137 240.748,66.137 229.733,48.634 "
       id="polygon4697"
       style="fill:#00407e" /><rect
       x="249.01801"
       y="44.470001"
       width="2.9260001"
       height="21.667"
       id="rect4699"
       style="fill:#00407e" /><polygon
       points="258.356,44.469 264.544,62.939 264.603,62.939 270.731,44.469 274.022,44.469 266.113,66.137 263.004,66.137 255.099,44.469 "
       id="polygon4701"
       style="fill:#00407e" /><polygon
       points="279.189,47.066 279.189,53.704 291.047,53.704 291.047,56.299 279.189,56.299 279.189,63.543 292.256,63.543 292.256,66.138 276.259,66.138 276.259,44.471 292.044,44.471 292.044,47.066 "
       id="polygon4703"
       style="fill:#00407e" /><path
       d="m 299.923,54.34 6.79,0 c 2.142,0 4.407,-0.547 4.407,-3.745 0,-3.35 -2.443,-3.622 -3.893,-3.622 l -7.303,0 0,7.367 z m 0,11.798 -2.927,0 0,-21.667 10.018,0 c 3.562,0 7.125,1.235 7.125,5.823 0,3.198 -1.629,4.377 -3.019,5.191 1.238,0.513 2.476,1.056 2.595,4.075 l 0.182,3.923 c 0.03,1.209 0.182,1.658 1.086,2.172 l 0,0.483 -3.592,0 c -0.424,-1.327 -0.513,-4.618 -0.513,-5.433 0,-1.781 -0.36,-3.863 -3.863,-3.863 l -7.091,0 0,9.296"
       id="path4705"
       inkscape:connector-curvature="0"
       style="fill:#00407e" /><path
       d="m 330.827,50.807 c -0.153,-3.35 -2.927,-4.406 -5.373,-4.406 -1.841,0 -4.949,0.513 -4.949,3.804 0,1.841 1.298,2.443 2.566,2.744 l 6.187,1.42 c 2.807,0.662 4.92,2.354 4.92,5.793 0,5.131 -4.771,6.548 -8.481,6.548 -4.013,0 -5.582,-1.205 -6.549,-2.082 -1.841,-1.658 -2.205,-3.469 -2.205,-5.492 l 2.748,0 c 0,3.923 3.198,5.068 5.976,5.068 2.112,0 5.674,-0.539 5.674,-3.652 0,-2.261 -1.056,-2.986 -4.618,-3.83 l -4.437,-1.026 c -1.417,-0.335 -4.618,-1.327 -4.618,-5.102 0,-3.38 2.205,-6.701 7.456,-6.701 7.574,0 8.329,4.529 8.452,6.913 l -2.749,0 z"
       id="path4707"
       inkscape:connector-curvature="0"
       style="fill:#00407e" /><rect
       x="338.284"
       y="44.470001"
       width="2.9260001"
       height="21.667"
       id="rect4709"
       style="fill:#00407e" /><polygon
       points="351.616,66.137 351.616,47.065 344.284,47.065 344.284,44.469 361.879,44.469 361.879,47.065 354.546,47.065 354.546,66.137 "
       id="polygon4711"
       style="fill:#00407e" /><polygon
       points="372.289,54.883 378.503,44.471 381.946,44.471 373.766,57.419 373.766,66.138 370.839,66.138 370.839,57.419 362.658,44.471 366.068,44.471 "
       id="polygon4713"
       style="fill:#00407e" /><rect
       x="5.3629999"
       y="9.8319998"
       width="82.472"
       height="58.108002"
       id="rect4715"
       style="fill:#00407e" /><path
       d="m 42.605,177.694 c 2.989,20.991 17.272,35.798 42.55,43.644 l -80.155,0 0,-137.513 89.042,0 c -29.115,6.002 -48.355,19.723 -50.061,47.28 -2.886,46.615 95.597,29.774 116.897,40.814 2.439,1.264 4.153,3.614 4.299,5.745 0.443,6.422 -0.398,13.275 -18.496,13.717 -7.4,0.178 -11.732,-1.086 -15.16,-2.979 -5.652,-3.123 -7.4,-4.782 -12.107,-10.709 l -76.809,0 m 273.346,-93.777 -0.085,62.347 c -0.963,19.972 -14.904,33.206 -30.425,33.206 -14.8,0 -27.55,-10.107 -29.577,-33.444 l 0,-62.109 -0.019,0 0,-0.092 -68.97,0 c 30.138,6.411 45.31,20.429 48.333,41.156 l -81.326,0 c -1.067,-3.529 -2.06,-6.957 -7.564,-9.575 -5.875,-2.793 -5.938,-2.707 -12.992,-2.978 -15.736,-0.602 -19.492,7.943 -19.685,12.903 -0.948,24.077 127.405,-5.775 125.241,52.337 -0.911,24.43 -24.668,37.133 -49.456,43.67 l 58.908,0 c 0,0 0,0.003 0,0.003 0,0 9.642,0.193 19.886,0 25.282,-0.483 41.149,0 48.143,-10.348 l 0,10.166 65.698,0 0,-137.242 -66.11,0 z"
       id="path4717"
       inkscape:connector-curvature="0"
       style="fill:#00407e" /></g></svg>