<?xml version="1.0" encoding="UTF-8" standalone="no"?>
<!-- Created with Inkscape (http://www.inkscape.org/) -->

<svg
   xmlns:dc="http://purl.org/dc/elements/1.1/"
   xmlns:cc="http://creativecommons.org/ns#"
   xmlns:rdf="http://www.w3.org/1999/02/22-rdf-syntax-ns#"
   xmlns:svg="http://www.w3.org/2000/svg"
   xmlns="http://www.w3.org/2000/svg"
   xmlns:sodipodi="http://sodipodi.sourceforge.net/DTD/sodipodi-0.dtd"
   xmlns:inkscape="http://www.inkscape.org/namespaces/inkscape"
   id="svg2"
   version="1.1"
   inkscape:version="0.91 r13725"
   xml:space="preserve"
   width="748.68201"
   height="508.15518"
   viewBox="0 0 748.68201 508.15518"
   sodipodi:docname="kim.svg"><metadata
     id="metadata8"><rdf:RDF><cc:Work
         rdf:about=""><dc:format>image/svg+xml</dc:format><dc:type
           rdf:resource="http://purl.org/dc/dcmitype/StillImage" /><dc:title></dc:title></cc:Work></rdf:RDF></metadata><defs
     id="defs6"><clipPath
       clipPathUnits="userSpaceOnUse"
       id="clipPath16"><path
         d="m 0,420.945 595.276,0 L 595.276,0 0,0 0,420.945 Z"
         id="path18"
         inkscape:connector-curvature="0" /></clipPath></defs><sodipodi:namedview
     pagecolor="#ffffff"
     bordercolor="#666666"
     borderopacity="1"
     objecttolerance="10"
     gridtolerance="10"
     guidetolerance="10"
     inkscape:pageopacity="0"
     inkscape:pageshadow="2"
     inkscape:window-width="1920"
     inkscape:window-height="1027"
     id="namedview4"
     showgrid="false"
     fit-margin-top="0"
     fit-margin-left="0"
     fit-margin-right="0"
     fit-margin-bottom="0"
     inkscape:zoom="0.4179574"
     inkscape:cx="376.68191"
     inkscape:cy="210.29541"
     inkscape:window-x="0"
     inkscape:window-y="0"
     inkscape:window-maximized="1"
     inkscape:current-layer="g10" /><g
     id="g10"
     inkscape:groupmode="layer"
     inkscape:label="VEC_KIM_logo"
     transform="matrix(1.25,0,0,-1.25,-0.15075,560.95043)"><g
       id="g12"
       transform="translate(0,34.852071)"><g
         id="g14"
         clip-path="url(#clipPath16)"><g
           id="g20"
           transform="translate(377.7324,106.0625)"><path
             d="m 0,0 0,13.249 c 0,3.913 -1.12,6.931 -7.722,6.931 -3.524,0 -5.706,-1.494 -6.602,-3.048 -0.971,1.837 -3.047,3.048 -6.96,3.048 -2.898,0 -4.929,-1.151 -5.81,-2.6 l -0.404,2.36 -2.658,0 0,-19.94 3.092,0 0,12.487 c 0,3.57 1.957,5.048 5.212,5.048 4.765,0 5.228,-1.658 5.228,-4.869 l 0,-12.666 3.092,0 0,12.487 c 0,3.57 1.987,5.048 5.213,5.048 4.719,0 5.213,-1.658 5.213,-4.869 L -3.106,0 0,0 Z"
             style="fill:#1a171b;fill-opacity:1;fill-rule:nonzero;stroke:none"
             id="path22"
             inkscape:connector-curvature="0" /></g><g
           id="g24"
           transform="translate(401.9746,106.0625)"><path
             d="m 0,0 0,13.443 c 0,4.182 -1.883,6.737 -8.813,6.737 -5.959,0 -9.021,-1.719 -9.021,-5.094 l 3.106,-0.284 c 0,1.837 1.673,2.942 5.915,2.942 4.391,0 5.706,-1.463 5.706,-4.72 l 0,-1.03 -6.364,0 c -7.826,0 -9.364,-3.077 -9.364,-6.423 0,-3.211 2.45,-5.809 7.573,-5.809 4.346,0 6.213,0.701 8.155,2.539 L -2.659,0 0,0 Z m -3.107,6.99 c 0,-2.972 -2.509,-4.585 -7.647,-4.585 -3.675,0 -4.959,1.747 -4.959,3.271 0,1.613 0.687,3.884 6.242,3.884 l 6.364,0 0,-2.57 z"
             style="fill:#1a171b;fill-opacity:1;fill-rule:nonzero;stroke:none"
             id="path26"
             inkscape:connector-curvature="0" /></g><g
           id="g28"
           transform="translate(421.1523,123.0156)"><path
             d="m 0,0 0,2.658 c -0.941,0.373 -2.226,0.569 -3.883,0.569 -3.466,0 -5.497,-1.032 -6.392,-2.555 l -0.419,2.315 -2.66,0 0,-19.94 3.108,0 0,12.666 c 0,3.555 1.568,4.988 5.825,4.988 C -2.748,0.701 -1.299,0.492 0,0"
             style="fill:#1a171b;fill-opacity:1;fill-rule:nonzero;stroke:none"
             id="path30"
             inkscape:connector-curvature="0" /></g><g
           id="g32"
           transform="translate(444.498,106.0625)"><path
             d="m 0,0 0,5.497 c 0,3.555 -0.538,5.735 -6.244,6.004 l 6.05,8.439 -3.645,0 -6.005,-8.394 -5.391,0 0,16.042 -3.078,0 0,-27.588 3.078,0 0,8.962 7.467,0 c 4.422,0 4.646,-1.345 4.646,-4.406 L -3.122,0 0,0 Z"
             style="fill:#1a171b;fill-opacity:1;fill-rule:nonzero;stroke:none"
             id="path34"
             inkscape:connector-curvature="0" /></g><g
           id="g36"
           transform="translate(468.2012,112.3066)"><path
             d="m 0,0 -3.106,0 c -0.06,-2.196 -0.687,-4.063 -6.124,-4.063 -5.661,0 -6.168,1.912 -6.168,4.674 l 0,2.316 15.398,0 0,4.272 c 0,3.764 -1.074,6.737 -9.23,6.737 -8.185,0 -9.26,-2.973 -9.26,-6.737 l 0,-7.006 c 0,-3.734 1.075,-6.675 9.26,-6.675 C -1.016,-6.482 0,-3.451 0,0 m -3.106,6.78 0,-1.358 -12.292,0 0,1.358 c 0,2.764 0.507,4.72 6.168,4.72 5.661,0 6.124,-1.956 6.124,-4.72"
             style="fill:#1a171b;fill-opacity:1;fill-rule:nonzero;stroke:none"
             id="path38"
             inkscape:connector-curvature="0" /></g><g
           id="g40"
           transform="translate(486.0957,108.8711)"><path
             d="m 0,0 c -1.18,-0.284 -2.629,-0.583 -4.258,-0.583 -2.344,0 -3.928,0.882 -3.928,3.182 l 0,12.038 8.17,0 0,2.495 -8.17,0 0,4.839 -3.076,0 0,-4.839 -2.659,0 0,-2.495 2.659,0 0,-12.188 c 0,-4.122 3.047,-5.496 6.647,-5.496 1.568,0 3.539,0.314 4.615,0.656 L 0,0 Z"
             style="fill:#1a171b;fill-opacity:1;fill-rule:nonzero;stroke:none"
             id="path42"
             inkscape:connector-curvature="0" /></g><path
           d="m 350.803,178.205 -3.107,0 0,-3.107 3.107,0 0,3.107 z m 0,-5.87 -3.107,0 0,-19.94 3.107,0 0,19.94 z"
           style="fill:#1a171b;fill-opacity:1;fill-rule:nonzero;stroke:none"
           id="path44"
           inkscape:connector-curvature="0" /><g
           id="g46"
           transform="translate(376.4629,152.3945)"><path
             d="m 0,0 0,13.219 c 0,3.943 -1.105,6.961 -8.424,6.961 -3.66,0 -5.646,-1.121 -6.453,-2.57 l -0.477,2.33 -2.628,0 0,-19.94 3.105,0 0,12.473 c 0,3.569 1.523,5.048 5.856,5.048 5.376,0 5.915,-1.658 5.915,-4.855 L -3.106,0 0,0 Z"
             style="fill:#1a171b;fill-opacity:1;fill-rule:nonzero;stroke:none"
             id="path48"
             inkscape:connector-curvature="0" /></g><g
           id="g50"
           transform="translate(401.7949,152.3945)"><path
             d="m 0,0 0,13.219 c 0,3.943 -1.105,6.961 -8.454,6.961 -3.63,0 -5.616,-1.121 -6.438,-2.57 l -0.462,2.33 -2.629,0 0,-19.94 3.091,0 0,12.473 c 0,3.569 1.538,5.048 5.871,5.048 5.376,0 5.915,-1.658 5.915,-4.855 L -3.106,0 0,0 Z"
             style="fill:#1a171b;fill-opacity:1;fill-rule:nonzero;stroke:none"
             id="path52"
             inkscape:connector-curvature="0" /></g><g
           id="g54"
           transform="translate(427.2168,158.832)"><path
             d="m 0,0 0,7.035 c 0,3.765 -1.016,6.707 -9.23,6.707 -8.276,0 -9.261,-2.942 -9.261,-6.707 l 0,-7.035 c 0,-3.748 0.985,-6.691 9.261,-6.691 C -1.016,-6.691 0,-3.748 0,0 m -3.122,0.434 c 0,-2.779 -0.358,-4.69 -6.108,-4.69 -5.737,0 -6.155,1.911 -6.155,4.69 l 0,6.183 c 0,2.793 0.418,4.675 6.155,4.675 5.75,0 6.108,-1.882 6.108,-4.675 l 0,-6.183 z"
             style="fill:#1a171b;fill-opacity:1;fill-rule:nonzero;stroke:none"
             id="path56"
             inkscape:connector-curvature="0" /></g><g
           id="g58"
           transform="translate(452.1895,172.3203)"><path
             d="M 0,0 -3.166,0 -10.037,-16.535 -16.893,0 l -3.3,0 8.423,-19.926 3.346,0 L 0,0 Z"
             style="fill:#1a171b;fill-opacity:1;fill-rule:nonzero;stroke:none"
             id="path60"
             inkscape:connector-curvature="0" /></g><g
           id="g62"
           transform="translate(475.7891,152.3945)"><path
             d="m 0,0 0,13.428 c 0,4.182 -1.912,6.752 -8.813,6.752 -5.958,0 -9.021,-1.733 -9.021,-5.094 l 3.107,-0.299 c 0,1.838 1.717,2.942 5.914,2.942 4.392,0 5.707,-1.433 5.707,-4.704 l 0,-1.031 -6.363,0 c -7.797,0 -9.35,-3.061 -9.35,-6.422 0,-3.226 2.449,-5.826 7.557,-5.826 4.362,0 6.213,0.702 8.156,2.555 L -2.629,0 0,0 Z m -3.106,6.976 c 0,-2.972 -2.509,-4.571 -7.648,-4.571 -3.674,0 -4.959,1.733 -4.959,3.256 0,1.613 0.717,3.868 6.244,3.868 l 6.363,0 0,-2.553 z"
             style="fill:#1a171b;fill-opacity:1;fill-rule:nonzero;stroke:none"
             id="path64"
             inkscape:connector-curvature="0" /></g><g
           id="g66"
           transform="translate(495.416,155.2031)"><path
             d="m 0,0 c -1.195,-0.299 -2.645,-0.598 -4.272,-0.598 -2.361,0 -3.914,0.881 -3.914,3.197 l 0,12.053 8.156,0 0,2.48 -8.156,0 0,4.824 -3.107,0 0,-4.824 -2.643,0 0,-2.48 2.643,0 0,-12.217 c 0,-4.153 3.063,-5.498 6.662,-5.498 1.584,0 3.555,0.315 4.631,0.659 L 0,0 Z"
             style="fill:#1a171b;fill-opacity:1;fill-rule:nonzero;stroke:none"
             id="path68"
             inkscape:connector-curvature="0" /></g><path
           d="m 505.453,178.205 -3.122,0 0,-3.107 3.122,0 0,3.107 z m 0,-5.87 -3.122,0 0,-19.94 3.122,0 0,19.94 z"
           style="fill:#1a171b;fill-opacity:1;fill-rule:nonzero;stroke:none"
           id="path70"
           inkscape:connector-curvature="0" /><g
           id="g72"
           transform="translate(531.1875,158.832)"><path
             d="m 0,0 0,7.035 c 0,3.765 -0.985,6.707 -9.215,6.707 -8.29,0 -9.275,-2.942 -9.275,-6.707 l 0,-7.035 c 0,-3.748 0.985,-6.691 9.275,-6.691 C -0.985,-6.691 0,-3.748 0,0 m -3.092,0.434 c 0,-2.779 -0.388,-4.69 -6.123,-4.69 -5.751,0 -6.183,1.911 -6.183,4.69 l 0,6.183 c 0,2.793 0.432,4.675 6.183,4.675 5.735,0 6.123,-1.882 6.123,-4.675 l 0,-6.183 z"
             style="fill:#1a171b;fill-opacity:1;fill-rule:nonzero;stroke:none"
             id="path74"
             inkscape:connector-curvature="0" /></g><g
           id="g76"
           transform="translate(556.2959,152.3945)"><path
             d="m 0,0 0,13.219 c 0,3.943 -1.105,6.961 -8.409,6.961 -3.66,0 -5.631,-1.121 -6.467,-2.57 l -0.449,2.33 -2.658,0 0,-19.94 3.107,0 0,12.473 c 0,3.569 1.537,5.048 5.855,5.048 5.391,0 5.915,-1.658 5.915,-4.855 L -3.106,0 0,0 Z"
             style="fill:#1a171b;fill-opacity:1;fill-rule:nonzero;stroke:none"
             id="path78"
             inkscape:connector-curvature="0" /></g><g
           id="g80"
           transform="translate(368.7559,226.2998)"><path
             d="m 0,0 -3.764,0 -8.693,-13.233 -4.959,0 0,13.233 -3.301,0 0,-27.603 3.301,0 0,11.561 8.32,0 c 4.719,0 5.512,-0.791 5.512,-3.854 l 0,-7.707 3.285,0 0,8.41 c 0,4.346 -1.673,5.96 -7.945,5.96 l -0.449,0 L 0,0 Z"
             style="fill:#1a171b;fill-opacity:1;fill-rule:nonzero;stroke:none"
             id="path82"
             inkscape:connector-curvature="0" /></g><g
           id="g84"
           transform="translate(392.8926,198.6973)"><path
             d="m 0,0 0,13.264 c 0,3.913 -1.119,6.93 -8.438,6.93 -3.66,0 -5.631,-1.12 -6.453,-2.569 l -0.463,2.33 -2.644,0 0,-19.955 3.107,0 0,12.502 c 0,3.555 1.524,5.048 5.87,5.048 5.376,0 5.915,-1.657 5.915,-4.899 L -3.106,0 0,0 Z"
             style="fill:#1a171b;fill-opacity:1;fill-rule:nonzero;stroke:none"
             id="path86"
             inkscape:connector-curvature="0" /></g><g
           id="g88"
           transform="translate(417.0293,205.1504)"><path
             d="m 0,0 0,7.05 c 0,3.763 -0.984,6.691 -9.23,6.691 -8.274,0 -9.26,-2.928 -9.26,-6.691 l 0,-7.05 c 0,-3.765 0.986,-6.691 9.26,-6.691 C -0.984,-6.691 0,-3.765 0,0 m -3.105,0.418 c 0,-2.764 -0.389,-4.676 -6.125,-4.676 -5.765,0 -6.168,1.912 -6.168,4.676 l 0,6.213 c 0,2.778 0.403,4.676 6.168,4.676 5.736,0 6.125,-1.898 6.125,-4.676 l 0,-6.213 z"
             style="fill:#1a171b;fill-opacity:1;fill-rule:nonzero;stroke:none"
             id="path90"
             inkscape:connector-curvature="0" /></g><g
           id="g92"
           transform="translate(435.2822,218.6377)"><path
             d="m 0,0 0,-13.01 c 0,-2.733 -0.628,-4.645 -4.765,-4.645 -4.048,0 -4.764,1.912 -4.764,4.645 l 0,13.01 -3.092,0 0,-13.487 c 0,-3.765 1.3,-6.692 7.856,-6.692 3.227,0 5.213,1.404 6.288,2.778 1.076,-1.374 3.078,-2.778 6.273,-2.778 6.602,0 7.887,2.927 7.887,6.692 l 0,13.487 -3.121,0 0,-13.01 c 0,-2.733 -0.703,-4.645 -4.766,-4.645 -4.121,0 -4.734,1.912 -4.734,4.645 L 3.062,0 0,0 Z"
             style="fill:#1a171b;fill-opacity:1;fill-rule:nonzero;stroke:none"
             id="path94"
             inkscape:connector-curvature="0" /></g><path
           d="m 460.285,226.3 -3.137,0 0,-27.603 3.137,0 0,27.603 z"
           style="fill:#1a171b;fill-opacity:1;fill-rule:nonzero;stroke:none"
           id="path96"
           inkscape:connector-curvature="0" /><g
           id="g98"
           transform="translate(484.7363,204.9707)"><path
             d="m 0,0 -3.092,0 c -0.045,-2.211 -0.717,-4.078 -6.124,-4.078 -5.676,0 -6.183,1.912 -6.183,4.676 l 0,2.314 15.399,0 0,4.257 c 0,3.765 -1.076,6.752 -9.216,6.752 -8.184,0 -9.275,-2.987 -9.275,-6.752 l 0,-6.989 c 0,-3.765 1.091,-6.692 9.275,-6.692 C -1.031,-6.512 0,-3.48 0,0 m -3.092,6.766 0,-1.359 -12.307,0 0,1.359 c 0,2.778 0.507,4.72 6.183,4.72 5.676,0 6.124,-1.942 6.124,-4.72"
             style="fill:#1a171b;fill-opacity:1;fill-rule:nonzero;stroke:none"
             id="path100"
             inkscape:connector-curvature="0" /></g><g
           id="g102"
           transform="translate(490.1729,205.4043)"><path
             d="m 0,0 c 0,-3.929 1.149,-6.945 8.483,-6.945 3.929,0 5.782,1.314 6.483,2.568 l 0.463,-2.33 2.659,0 0,27.603 -3.122,0 0,-9.978 C 14.069,12.456 12.024,13.487 8.483,13.487 1.149,13.487 0,10.47 0,6.557 L 0,0 Z m 3.092,0.582 0,5.392 c 0,3.212 0.538,4.869 5.915,4.869 5.391,0 5.959,-1.657 5.959,-4.869 l 0,-5.392 c 0,-3.227 -0.568,-4.884 -5.959,-4.884 -5.377,0 -5.915,1.657 -5.915,4.884"
             style="fill:#1a171b;fill-opacity:1;fill-rule:nonzero;stroke:none"
             id="path104"
             inkscape:connector-curvature="0" /></g><g
           id="g106"
           transform="translate(514.1152,205.4043)"><path
             d="m 0,0 c 0,-3.929 1.136,-6.945 8.455,-6.945 3.465,0 5.347,0.91 6.496,2.523 l 0,-4.212 c 0,-2.733 -0.283,-4.421 -5.779,-4.421 -5.139,0 -5.856,1.569 -5.871,3.629 l -3.121,0 c 0,-3.27 1.134,-6.078 8.992,-6.078 7.766,0 8.871,2.733 8.871,6.542 l 0,22.195 -2.643,0 -0.449,-2.255 C 14.011,12.456 12.01,13.487 8.455,13.487 1.136,13.487 0,10.47 0,6.557 L 0,0 Z m 3.092,5.974 c 0,3.212 0.553,4.869 5.945,4.869 5.392,0 5.914,-1.657 5.914,-4.869 l 0,-5.392 c 0,-3.227 -0.522,-4.884 -5.914,-4.884 -5.392,0 -5.945,1.657 -5.945,4.884 l 0,5.392 z"
             style="fill:#1a171b;fill-opacity:1;fill-rule:nonzero;stroke:none"
             id="path108"
             inkscape:connector-curvature="0" /></g><g
           id="g110"
           transform="translate(556.5049,204.9707)"><path
             d="m 0,0 -3.106,0 c -0.031,-2.211 -0.688,-4.078 -6.124,-4.078 -5.646,0 -6.14,1.912 -6.14,4.676 l 0,2.314 15.37,0 0,4.257 c 0,3.765 -1.046,6.752 -9.23,6.752 -8.185,0 -9.261,-2.987 -9.261,-6.752 l 0,-6.989 c 0,-3.765 1.076,-6.692 9.261,-6.692 C -1.016,-6.512 0,-3.48 0,0 m -3.106,6.766 0,-1.359 -12.264,0 0,1.359 c 0,2.778 0.494,4.72 6.14,4.72 5.675,0 6.124,-1.942 6.124,-4.72"
             style="fill:#1a171b;fill-opacity:1;fill-rule:nonzero;stroke:none"
             id="path112"
             inkscape:connector-curvature="0" /></g><g
           id="g114"
           transform="translate(40.1206,363.0562)"><path
             d="m 0,0 0,-304.82 257.935,0 0,257.113 L 209.481,0 0,0 Z"
             style="fill:#1a171b;fill-opacity:1;fill-rule:nonzero;stroke:none"
             id="path116"
             inkscape:connector-curvature="0" /></g><path
           d="m 157.968,176.696 -8.641,0 0,-8.663 8.641,0 0,8.663 z m 0,-16.384 -8.641,0 0,-55.623 8.641,0 0,55.623 z"
           style="fill:#f3a300;fill-opacity:1;fill-rule:nonzero;stroke:none"
           id="path118"
           inkscape:connector-curvature="0" /><g
           id="g120"
           transform="translate(260.8188,104.6885)"><path
             d="m 0,0 0,36.952 c 0,10.948 -3.122,19.373 -21.583,19.373 -9.813,0 -15.922,-4.152 -18.356,-8.529 -2.749,5.183 -8.529,8.529 -19.38,8.529 -8.193,0 -13.839,-3.226 -16.281,-7.26 l -1.15,6.558 -7.386,0 0,-55.623 8.663,0 0,34.847 c 0,9.932 5.43,14.114 14.541,14.114 13.27,0 14.548,-4.646 14.548,-13.622 l 0,-35.339 8.64,0 0,34.847 c 0,9.932 5.541,14.114 14.541,14.114 13.159,0 14.548,-4.646 14.548,-13.622 L -8.655,0 0,0 Z"
             style="fill:#f3a300;fill-opacity:1;fill-rule:nonzero;stroke:none"
             id="path122"
             inkscape:connector-curvature="0" /></g><g
           id="g124"
           transform="translate(132.4419,181.6699)"><path
             d="m 0,0 -10.5,0 -24.242,-36.938 -13.846,0 0,36.938 -9.245,0 0,-76.981 9.245,0 0,32.217 23.189,0 c 13.151,0 15.369,-2.195 15.369,-10.739 l 0,-21.478 9.223,0 0,23.419 c 0,12.128 -4.749,16.624 -22.165,16.624 l -1.262,0 L 0,0 Z"
             style="fill:#f3a300;fill-opacity:1;fill-rule:nonzero;stroke:none"
             id="path126"
             inkscape:connector-curvature="0" /></g></g></g></g></svg>