<?xml version="1.0" encoding="UTF-8" standalone="no"?>
<!-- Created with Inkscape (http://www.inkscape.org/) -->

<svg
   xmlns:dc="http://purl.org/dc/elements/1.1/"
   xmlns:cc="http://creativecommons.org/ns#"
   xmlns:rdf="http://www.w3.org/1999/02/22-rdf-syntax-ns#"
   xmlns:svg="http://www.w3.org/2000/svg"
   xmlns="http://www.w3.org/2000/svg"
   xmlns:sodipodi="http://sodipodi.sourceforge.net/DTD/sodipodi-0.dtd"
   xmlns:inkscape="http://www.inkscape.org/namespaces/inkscape"
   width="442"
   height="300"
   viewBox="0 0 116.94583 79.375002"
   version="1.1"
   id="svg8"
   inkscape:version="0.92.2 (unknown)"
   sodipodi:docname="wsw2.svg">
  <defs
     id="defs2">
    <style
       id="style4777">.cls-1{fill:#443e3c;}.cls-2{fill:#9327e0;}</style>
  </defs>
  <sodipodi:namedview
     id="base"
     pagecolor="#ffffff"
     bordercolor="#666666"
     borderopacity="1.0"
     inkscape:pageopacity="0.0"
     inkscape:pageshadow="2"
     inkscape:zoom="0.98994949"
     inkscape:cx="156.57022"
     inkscape:cy="271.35678"
     inkscape:document-units="mm"
     inkscape:current-layer="layer1"
     showgrid="false"
     units="px"
     inkscape:window-width="1920"
     inkscape:window-height="1027"
     inkscape:window-x="0"
     inkscape:window-y="0"
     inkscape:window-maximized="1" />
  <metadata
     id="metadata5">
    <rdf:RDF>
      <cc:Work
         rdf:about="">
        <dc:format>image/svg+xml</dc:format>
        <dc:type
           rdf:resource="http://purl.org/dc/dcmitype/StillImage" />
        <dc:title></dc:title>
      </cc:Work>
    </rdf:RDF>
  </metadata>
  <g
     inkscape:label="Layer 1"
     inkscape:groupmode="layer"
     id="layer1"
     transform="translate(0,-217.62497)">
    <g
       id="g4875"
       transform="matrix(0.10748261,0,0,0.10748261,27.164845,220.60812)">
      <g
         data-name="Base Art"
         id="Base_Art">
        <path
           id="path4783"
           d="m 51.25,579.16 8.19,-43.31 h 12.5 l -13.5,60.87 H 45.81 L 35.9,556 26,596.72 H 13.37 l -13.5,-60.87 h 12.5 l 8.24,43.23 10,-43.23 h 10.65 z"
           class="cls-1"
           inkscape:connector-curvature="0"
           style="fill:#443e3c" />
        <path
           id="path4785"
           d="m 72.17,573.68 a 26.82,26.82 0 0 1 2.59,-12 19,19 0 0 1 7.46,-8.15 21.77,21.77 0 0 1 11.31,-2.88 q 9.16,0 14.95,5.6 5.79,5.6 6.46,15.22 l 0.08,3.09 q 0,10.41 -5.81,16.7 -5.81,6.29 -15.59,6.29 -9.78,0 -15.61,-6.27 -5.83,-6.27 -5.83,-17.06 z m 12.08,0.86 q 0,6.45 2.42,9.86 a 8.71,8.71 0 0 0 13.8,0 q 2.47,-3.37 2.47,-10.78 0,-6.32 -2.47,-9.8 a 8,8 0 0 0 -6.94,-3.48 7.89,7.89 0 0 0 -6.86,3.45 q -2.42,3.51 -2.42,10.75 z"
           class="cls-1"
           inkscape:connector-curvature="0"
           style="fill:#443e3c" />
        <path
           id="path4787"
           d="m 145.31,562.81 a 32.86,32.86 0 0 0 -4.35,-0.33 q -6.86,0 -9,4.64 v 29.6 H 119.9 v -45.23 h 11.41 l 0.33,5.39 q 3.64,-6.23 10.07,-6.23 a 12.67,12.67 0 0 1 3.76,0.54 z"
           class="cls-1"
           inkscape:connector-curvature="0"
           style="fill:#443e3c" />
        <path
           id="path4789"
           d="M 161.31,596.72 H 149.18 V 532.51 H 161.3 Z"
           class="cls-1"
           inkscape:connector-curvature="0"
           style="fill:#443e3c" />
        <path
           id="path4791"
           d="m 166.81,573.77 q 0,-10.58 4.75,-16.85 a 15.39,15.39 0 0 1 13,-6.27 13.86,13.86 0 0 1 10.91,4.93 v -23.07 h 12.12 v 64.21 h -10.94 l -0.59,-4.81 a 14.22,14.22 0 0 1 -11.62,5.64 15.35,15.35 0 0 1 -12.81,-6.29 q -4.82,-6.26 -4.82,-17.49 z m 12.08,0.86 q 0,6.38 2.22,9.79 a 7.21,7.21 0 0 0 6.44,3.4 q 5.6,0 7.9,-4.75 v -17.93 q -2.26,-4.75 -7.82,-4.75 -8.74,0 -8.74,14.24 z"
           class="cls-1"
           inkscape:connector-curvature="0"
           style="fill:#443e3c" />
        <path
           id="path4793"
           d="m 261.61,580.75 a 6.44,6.44 0 0 0 -2.51,-5.46 q -2.51,-1.9 -9,-4 a 63.93,63.93 0 0 1 -10.33,-4.16 q -10.37,-5.6 -10.37,-15.09 a 14.7,14.7 0 0 1 2.78,-8.8 18.14,18.14 0 0 1 8,-6 30.06,30.06 0 0 1 11.65,-2.24 27.36,27.36 0 0 1 11.62,2.36 18.51,18.51 0 0 1 7.92,6.67 17.45,17.45 0 0 1 2.82,9.78 h -12.54 a 8.21,8.21 0 0 0 -2.63,-6.5 q -2.63,-2.32 -7.4,-2.32 -4.6,0 -7.15,1.94 a 6.13,6.13 0 0 0 -2.55,5.12 5.87,5.87 0 0 0 3,5 33.76,33.76 0 0 0 8.8,3.76 q 10.7,3.22 15.59,8 a 15.9,15.9 0 0 1 4.89,11.87 14.65,14.65 0 0 1 -6,12.4 q -6,4.49 -16.09,4.49 a 31.08,31.08 0 0 1 -12.78,-2.57 20.24,20.24 0 0 1 -8.8,-7 18,18 0 0 1 -3,-10.37 h 12.58 q 0,10.08 12,10.08 a 11.71,11.71 0 0 0 7,-1.82 5.92,5.92 0 0 0 2.5,-5.14 z"
           class="cls-1"
           inkscape:connector-curvature="0"
           style="fill:#443e3c" />
        <path
           id="path4795"
           d="m 320,574.52 q 0,10.45 -4.74,16.74 a 15.21,15.21 0 0 1 -12.81,6.29 14.09,14.09 0 0 1 -11.08,-4.77 v 21.32 h -12.05 v -62.61 h 11.2 l 0.42,4.43 a 14.2,14.2 0 0 1 11.45,-5.27 q 8.36,0 13,6.19 4.64,6.19 4.61,17.05 z m -12,-0.92 q 0,-6.33 -2.24,-9.77 a 7.28,7.28 0 0 0 -6.5,-3.44 q -5.69,0 -7.82,4.36 v 18.58 q 2.22,4.49 7.9,4.49 8.66,-0.01 8.66,-14.22 z"
           class="cls-1"
           inkscape:connector-curvature="0"
           style="fill:#443e3c" />
        <path
           id="path4797"
           d="m 351.16,596.72 a 13.42,13.42 0 0 1 -1.21,-4.06 14.62,14.62 0 0 1 -11.41,4.89 16.06,16.06 0 0 1 -11,-3.85 12.37,12.37 0 0 1 -4.37,-9.7 q 0,-7.19 5.33,-11 5.33,-3.81 15.4,-3.89 h 5.56 v -2.59 a 7.46,7.46 0 0 0 -1.61,-5 q -1.61,-1.88 -5.08,-1.88 a 7.2,7.2 0 0 0 -4.79,1.46 5,5 0 0 0 -1.73,4 h -12.1 a 12.14,12.14 0 0 1 2.42,-7.27 16,16 0 0 1 6.86,-5.25 25,25 0 0 1 9.95,-1.9 q 8.36,0 13.27,4.2 4.91,4.2 4.91,11.81 v 19.61 q 0,6.44 1.8,9.74 v 0.71 z m -10,-8.4 a 10.41,10.41 0 0 0 4.93,-1.19 7.83,7.83 0 0 0 3.34,-3.2 v -7.78 h -4.52 q -9.07,0 -9.66,6.27 v 0.71 a 4.84,4.84 0 0 0 1.59,3.72 6.17,6.17 0 0 0 4.33,1.47 z"
           class="cls-1"
           inkscape:connector-curvature="0"
           style="fill:#443e3c" />
        <path
           id="path4799"
           d="m 387.09,587.81 a 7.92,7.92 0 0 0 5.43,-1.84 6.44,6.44 0 0 0 2.17,-4.89 H 406 a 15.5,15.5 0 0 1 -2.51,8.42 16.56,16.56 0 0 1 -6.75,5.94 21.14,21.14 0 0 1 -9.47,2.11 q -9.7,0 -15.3,-6.17 -5.6,-6.17 -5.6,-17 v -0.79 q 0,-10.45 5.56,-16.68 5.56,-6.23 15.26,-6.23 8.49,0 13.61,4.83 5.12,4.83 5.2,12.86 h -11.3 a 8.3,8.3 0 0 0 -2.17,-5.74 8.08,8.08 0 0 0 -11.89,0.87 q -2.15,3.08 -2.15,10 v 1.26 q 0,7 2.13,10 a 7.37,7.37 0 0 0 6.47,3.05 z"
           class="cls-1"
           inkscape:connector-curvature="0"
           style="fill:#443e3c" />
        <path
           id="path4801"
           d="m 431.18,597.55 q -10,0 -16.2,-6.1 -6.2,-6.1 -6.25,-16.26 V 574 a 27.32,27.32 0 0 1 2.63,-12.19 19.33,19.33 0 0 1 7.46,-8.28 21,21 0 0 1 11,-2.91 q 9.28,0 14.61,5.85 5.33,5.85 5.33,16.6 V 578 H 421 a 11.22,11.22 0 0 0 3.53,7.11 10.68,10.68 0 0 0 7.46,2.68 13,13 0 0 0 10.91,-5.06 l 5.94,6.65 a 18.14,18.14 0 0 1 -7.36,6 24.14,24.14 0 0 1 -10.3,2.17 z m -1.38,-37.16 a 7.55,7.55 0 0 0 -5.83,2.44 12.61,12.61 0 0 0 -2.86,7 h 16.81 v -1 a 9,9 0 0 0 -2.17,-6.24 7.79,7.79 0 0 0 -5.95,-2.2 z"
           class="cls-1"
           inkscape:connector-curvature="0"
           style="fill:#443e3c" />
        <path
           id="path4803"
           d="M 51.25,664.26 59.44,621 h 12.5 l -13.5,60.87 H 45.81 L 35.91,641.1 26,681.82 H 13.37 L -0.13,621 h 12.5 l 8.24,43.23 10,-43.23 h 10.65 z"
           class="cls-1"
           inkscape:connector-curvature="0"
           style="fill:#443e3c" />
        <path
           id="path4805"
           d="m 94.87,682.65 q -9.95,0 -16.2,-6.1 -6.25,-6.1 -6.25,-16.26 v -1.17 a 27.32,27.32 0 0 1 2.63,-12.19 19.33,19.33 0 0 1 7.46,-8.28 21,21 0 0 1 11,-2.91 q 9.28,0 14.61,5.85 5.33,5.85 5.33,16.6 v 4.93 H 84.67 a 11.22,11.22 0 0 0 3.53,7.11 10.68,10.68 0 0 0 7.46,2.68 13,13 0 0 0 10.91,-5.06 l 5.94,6.65 a 18.14,18.14 0 0 1 -7.36,6 24.14,24.14 0 0 1 -10.28,2.15 z m -1.38,-37.16 a 7.55,7.55 0 0 0 -5.83,2.44 12.61,12.61 0 0 0 -2.86,7 h 16.8 v -1 a 9,9 0 0 0 -2.17,-6.24 7.79,7.79 0 0 0 -5.94,-2.2 z"
           class="cls-1"
           inkscape:connector-curvature="0"
           style="fill:#443e3c" />
        <path
           id="path4807"
           d="m 138.58,682.65 q -9.95,0 -16.2,-6.1 -6.25,-6.1 -6.25,-16.26 v -1.17 a 27.32,27.32 0 0 1 2.63,-12.19 19.33,19.33 0 0 1 7.46,-8.28 21,21 0 0 1 11,-2.91 q 9.28,0 14.61,5.85 5.33,5.85 5.33,16.6 v 4.93 h -28.8 a 11.22,11.22 0 0 0 3.53,7.11 10.68,10.68 0 0 0 7.46,2.68 13,13 0 0 0 10.91,-5.06 l 5.94,6.65 a 18.14,18.14 0 0 1 -7.36,6 24.14,24.14 0 0 1 -10.26,2.15 z m -1.38,-37.16 a 7.55,7.55 0 0 0 -5.83,2.44 12.61,12.61 0 0 0 -2.86,7 h 16.81 v -1 a 9,9 0 0 0 -2.17,-6.24 7.79,7.79 0 0 0 -5.95,-2.2 z"
           class="cls-1"
           inkscape:connector-curvature="0"
           style="fill:#443e3c" />
        <path
           id="path4809"
           d="m 177.9,663.67 -4.34,4.33 v 13.8 h -12.09 v -64.19 h 12.08 v 35.58 l 2.34,-3 11.58,-13.59 H 202 l -16.35,18.85 17.77,26.38 h -13.89 z"
           class="cls-1"
           inkscape:connector-curvature="0"
           style="fill:#443e3c" />
        <path
           id="path4811"
           d="M 51,224.41 A 223.39,223.39 0 0 1 67.78,139.23 H -0.13 V 500 H 361 v -68.58 l -0.55,0.23 a 223.37,223.37 0 0 1 -84.8,16.84 C 151.93,448.78 51,348.12 51,224.41 Z"
           class="cls-2"
           inkscape:connector-curvature="0"
           style="fill:#9327e0" />
        <path
           id="path4813"
           d="M 499.18,224.41 C 499.18,100.66 398.86,0.33 275.1,0.33 181.51,0.33 101.33,57.72 67.8,139.22 h 0.4 c 161.51,0 292.47,130.78 292.8,292.2 81.12,-33.7 138.18,-113.69 138.18,-207.01 z"
           class="cls-2"
           inkscape:connector-curvature="0"
           style="fill:#9327e0" />
      </g>
      <g
         data-name="October 4-10"
         id="October_4-10">
        <path
           id="path4816"
           d="m 259.43,663.82 a 23.32,23.32 0 0 1 -1.93,9.79 14.7,14.7 0 0 1 -5.5,6.49 15.07,15.07 0 0 1 -8.26,2.27 14.34,14.34 0 0 1 -11.42,-5.06 Q 228,672.25 228,663.66 v -4.16 a 23.18,23.18 0 0 1 2,-9.77 14.52,14.52 0 0 1 13.76,-8.83 15.09,15.09 0 0 1 8.22,2.25 14.76,14.76 0 0 1 5.5,6.35 22.85,22.85 0 0 1 2,9.51 z M 256,659.44 q 0,-7.29 -3.3,-11.42 a 11.86,11.86 0 0 0 -18,0 q -3.34,4.14 -3.34,11.57 v 4.21 q 0,7.18 3.33,11.38 a 11.87,11.87 0 0 0 18.08,0.06 q 3.24,-4.14 3.24,-11.55 z"
           class="cls-2"
           inkscape:connector-curvature="0"
           style="fill:#9327e0" />
        <path
           id="path4818"
           d="m 296,669.23 q -0.69,6.38 -4.56,9.76 -3.87,3.38 -10.3,3.38 a 14.24,14.24 0 0 1 -7.94,-2.25 14.64,14.64 0 0 1 -5.34,-6.36 22.65,22.65 0 0 1 -1.91,-9.41 v -5.24 a 22.87,22.87 0 0 1 1.89,-9.54 14.5,14.5 0 0 1 5.42,-6.42 14.78,14.78 0 0 1 8.14,-2.26 q 6.49,0 10.24,3.49 a 14.63,14.63 0 0 1 4.37,9.68 h -3.41 q -1.28,-10.29 -11.17,-10.29 a 10.59,10.59 0 0 0 -8.75,4.11 q -3.26,4.11 -3.26,11.35 v 4.94 q 0,7 3.17,11.15 a 10.22,10.22 0 0 0 8.58,4.16 q 5.35,0 8.07,-2.56 2.72,-2.56 3.35,-7.69 z"
           class="cls-2"
           inkscape:connector-curvature="0"
           style="fill:#9327e0" />
        <path
           id="path4820"
           d="m 330.35,644.34 h -13.83 v 37.48 h -3.41 V 644.34 H 299.3 v -2.88 h 31 z"
           class="cls-2"
           inkscape:connector-curvature="0"
           style="fill:#9327e0" />
        <path
           id="path4822"
           d="m 365.35,663.82 a 23.33,23.33 0 0 1 -1.93,9.79 14.7,14.7 0 0 1 -5.5,6.49 15.07,15.07 0 0 1 -8.26,2.27 14.34,14.34 0 0 1 -11.42,-5.06 q -4.35,-5.06 -4.35,-13.65 v -4.16 a 23.18,23.18 0 0 1 2,-9.77 14.52,14.52 0 0 1 13.76,-8.83 15.09,15.09 0 0 1 8.22,2.25 14.76,14.76 0 0 1 5.5,6.35 22.85,22.85 0 0 1 2,9.51 z m -3.41,-4.38 q 0,-7.29 -3.3,-11.42 a 11.86,11.86 0 0 0 -18,0 q -3.34,4.14 -3.34,11.57 v 4.21 q 0,7.18 3.33,11.38 a 11.87,11.87 0 0 0 18.08,0.06 q 3.24,-4.14 3.24,-11.55 z"
           class="cls-2"
           inkscape:connector-curvature="0"
           style="fill:#9327e0" />
        <path
           id="path4824"
           d="m 373.38,681.82 v -40.37 h 11.92 q 6.49,0 9.84,2.68 3.35,2.68 3.35,7.89 a 9,9 0 0 1 -1.7,5.45 9.31,9.31 0 0 1 -4.67,3.31 9.78,9.78 0 0 1 7.82,9.67 10.49,10.49 0 0 1 -3.45,8.35 q -3.45,3 -9.61,3 z m 3.41,-22.26 h 9.31 a 10.46,10.46 0 0 0 6.61,-2 6.87,6.87 0 0 0 2.34,-5.62 q 0,-3.89 -2.43,-5.74 -2.43,-1.85 -7.33,-1.85 h -8.51 z m 0,2.88 v 16.49 H 387 a 10.23,10.23 0 0 0 6.94,-2.23 7.76,7.76 0 0 0 2.56,-6.19 7.49,7.49 0 0 0 -2.45,-5.91 9.87,9.87 0 0 0 -6.78,-2.17 z"
           class="cls-2"
           inkscape:connector-curvature="0"
           style="fill:#9327e0" />
        <path
           id="path4826"
           d="M 429.89,662.47 H 411 v 16.47 h 21.71 v 2.88 H 407.6 v -40.37 h 25 v 2.88 H 411 v 15.25 h 18.88 z"
           class="cls-2"
           inkscape:connector-curvature="0"
           style="fill:#9327e0" />
        <path
           id="path4828"
           d="m 454.41,665 h -11.73 v 16.83 h -3.44 v -40.38 h 13.11 q 6.46,0 10.09,3.13 3.63,3.13 3.63,8.75 a 10.92,10.92 0 0 1 -2.27,6.84 11.62,11.62 0 0 1 -6.1,4.1 l 10.09,17.19 v 0.36 h -3.63 z m -11.73,-2.88 h 10.45 a 9.68,9.68 0 0 0 6.9,-2.44 9.23,9.23 0 0 0 -0.11,-13 q -2.72,-2.36 -7.62,-2.36 h -9.62 z"
           class="cls-2"
           inkscape:connector-curvature="0"
           style="fill:#9327e0" />
        <path
           id="path4830"
           d="m 507.11,668.81 h 6.29 v 2.8 h -6.29 v 10.2 h -3.33 v -10.2 h -19 v -1.89 l 18.69,-28.28 h 3.63 z m -18.24,0 h 14.91 v -23.06 l -1.47,2.55 z"
           class="cls-2"
           inkscape:connector-curvature="0"
           style="fill:#9327e0" />
        <path
           id="path4832"
           d="m 532.73,665.41 h -10.62 v -2.8 h 10.62 z"
           class="cls-2"
           inkscape:connector-curvature="0"
           style="fill:#9327e0" />
        <path
           id="path4834"
           d="m 548.75,681.82 h -3.33 v -36.38 l -11,4.08 v -3.1 l 13.75,-5.1 h 0.55 z"
           class="cls-2"
           inkscape:connector-curvature="0"
           style="fill:#9327e0" />
        <path
           id="path4836"
           d="m 582.7,665 q 0,8.54 -3.13,13 -3.13,4.46 -9.23,4.42 a 10.69,10.69 0 0 1 -9.18,-4.34 q -3.19,-4.34 -3.27,-12.63 v -7.24 q 0,-8.51 3.16,-12.89 3.16,-4.38 9.23,-4.38 6,0 9.15,4.23 3.15,4.23 3.27,12.46 z m -3.33,-7.24 q 0,-6.93 -2.26,-10.48 a 8.34,8.34 0 0 0 -13.6,-0.08 q -2.27,3.47 -2.33,10.23 v 7.93 q 0,6.9 2.34,10.56 a 7.59,7.59 0 0 0 6.81,3.66 7.48,7.48 0 0 0 6.72,-3.58 q 2.29,-3.58 2.32,-10.48 z"
           class="cls-2"
           inkscape:connector-curvature="0"
           style="fill:#9327e0" />
      </g>
    </g>
  </g>
</svg>
